<svg xmlns="http://www.w3.org/2000/svg" width="23.258" height="24" viewBox="0 0 23.258 24"><defs><style>.a{fill:#fff;opacity:0.3;}</style></defs><path class="a" d="M22.278,673.019l.1-.061.047.024c3.015,1.736,9.042,5.216,9.042,5.216l0,1.921,1.588-.9,1.681.965V690.7l-.089.1L24,696.936a.185.185,0,0,1-.146.011c-.044-.019-.127-.066-.127-.066l-10.5-6.049-.1-.057-.039.023-1.592.918-.005-3.83,3.8,1.437L11.49,686.9l0-1.014,5.573,2.395-5.572-3.45,0-.955,7.319,3.351-7.324-4.483,0-.868,8.815,4.179-8.815-5.381-.008-1.481s7.2-4.115,10.8-6.175m-1.682,11.4.018,1.934,10.342-5.936.005-.131,0-1.784L20.6,684.423M15.617,691.3l8.274-3.847,0,.856-6.541,4.008,6.539-2.987,0,.843L18.966,693.4l.145-.052,4.783-2.088,0,.794-3.307,2.434,3.309-1.3v.89l-1.7,1.511,1.7-.489,0,1.141,10.127-5.785.117-.122,0-9.766Z" transform="translate(-11.48 -672.958)"/></svg>