<svg xmlns="http://www.w3.org/2000/svg" width="25.054" height="24.999" viewBox="0 0 25.054 24.999"><defs><style>.a{fill:#fff;stroke:rgba(0,0,0,0);opacity:0.3;}</style></defs><path class="a" d="M12.674,23.725l-2.263-9.586L9.28,9.345l-.289-1.2L8.852,6.916c-.09-.823-.185-1.643-.248-2.472.313.769.595,1.545.883,2.321l.427,1.164.275,1.2,1.131,4.793L13.5,22.673h2.628l.169-.638c.043-.248.065-.5.1-.751.027-.137.063-.272.1-.407L14.287,17.96l.085-.147,2.3,2.421c.241-.876.492-1.75.769-2.621,0,1.022-.023,2.04-.062,3.056-.014.254-.009.509-.037.76s-.094.5-.128.747l-.229,1.5c-.034.229-.23.4-.46.266h-3.4a.31.31,0,0,1-.173.058A.318.318,0,0,1,12.674,23.725ZM4.5,22.487,1.241,21.58A.47.47,0,0,1,.915,21v0l.83-2.945a5.607,5.607,0,0,1,.51-1.445c.237-.463.5-.919.77-1.372,0,.529-.02,1.055-.059,1.574a5.555,5.555,0,0,1-.32,1.5l-.7,2.49,2.5.7,1.866-2.385.515-.659c.091-.1.161-.227.251-.334s.215-.184.322-.276c.433-.368.877-.726,1.337-1.071-.225.532-.467,1.049-.72,1.56-.064.126-.121.259-.192.38s-.184.21-.264.324l-.516.658L4.991,22.325a.469.469,0,0,1-.368.179A.464.464,0,0,1,4.5,22.487ZM3.383,19.8l.582-3.805,3.321.634-3.079,3.4Zm15.272-3.2L17.47,16.5c-.791-.066-1.581-.139-2.373-.225.784-.139,1.569-.262,2.353-.379l1.178-.166c.17-.022.341-.048.512-.063L16.69,12.045l-3.783.494,3.686-.984.178-6-.45.616c-.4.532-.777,1.079-1.178,1.608-.911.979-1.793,1.98-2.729,2.938.632-1.184,1.319-2.328,1.977-3.495.383-.544.788-1.069,1.175-1.609L16.745,4a.469.469,0,0,1,.348-.192l6.458-.39h0a.468.468,0,0,1,.494.442.48.48,0,0,1-.02.167L20.27,16.263a.466.466,0,0,1-.42.331h-.01l-.591.031C19.051,16.626,18.853,16.606,18.655,16.592ZM17.345,11.9l2.261,3.344,1.737-5.659Zm-.119-.655L21.613,8.7l.337-1.1L17.416,4.828Zm1.141-6.567,3.772,2.31L22.933,4.4ZM2.823,14.65c-.221-.037-.444-.064-.662-.11l-.635-.2L.248,13.964c-.2-.061-.338-.247-.177-.456V.466A.408.408,0,0,1,.5,0,.442.442,0,0,1,.649.027L4.158,1.285a3.716,3.716,0,0,1,.86.364l.836.432c.554.294,1.107.594,1.655.908-.621-.107-1.238-.226-1.853-.352l-.919-.2a3.781,3.781,0,0,1-.895-.267l-2.5-.9V13.306l.451.134.641.181c.208.08.41.18.616.269.819.364,1.634.739,2.443,1.138C4.6,14.92,3.707,14.792,2.823,14.65Zm-.335-2.286.118-9.577L6.727,3.893,8.5,15.024Z" transform="translate(0.507 0.5)"/></svg>